HIERARCHY
ROOT Pelvis
{
	OFFSET 0.000000 0.000000 0.000000
	CHANNELS 6 Xposition Yposition Zposition Xrotation Yrotation Zrotation
	JOINT LeftUpLeg_virtual
	{
		OFFSET 0.000000 0.000000 0.000000
		CHANNELS 3 Xrotation Yrotation Zrotation
		JOINT LeftUpLeg
		{
			OFFSET 18.735201 -5.666702 -4.541200
			CHANNELS 3 Xrotation Yrotation Zrotation
			JOINT LeftLeg
			{
				OFFSET -0.021200 -31.938179 0.493100
				CHANNELS 3 Xrotation Yrotation Zrotation
				JOINT LeftFoot
				{
					OFFSET 0.021200 -31.938179 -4.336299
					CHANNELS 3 Xrotation Yrotation Zrotation
					JOINT LeftToeBase
					{
						OFFSET 0.943001 -26.722000 15.023500
						CHANNELS 3 Xrotation Yrotation Zrotation
						End Site
						{
							OFFSET 0 0 0
						}
					}
				}
			}
		}
	}
	JOINT RightUpLeg_virtual
	{
		OFFSET 0.000000 0.000000 0.000000
		CHANNELS 3 Xrotation Yrotation Zrotation
		JOINT RightUpLeg
		{
			OFFSET -18.735201 -5.666702 -4.541200
			CHANNELS 3 Xrotation Yrotation Zrotation
			JOINT RightLeg
			{
				OFFSET 0.018946 -31.938133 0.493100
				CHANNELS 3 Xrotation Yrotation Zrotation
				JOINT RightFoot
				{
					OFFSET -0.018946 -31.938126 -4.336299
					CHANNELS 3 Xrotation Yrotation Zrotation
					JOINT RightToeBase
					{
						OFFSET -0.943001 -26.722004 15.023500
						CHANNELS 3 Xrotation Yrotation Zrotation
						End Site
						{
							OFFSET 0 0 0
						}
					}
				}
			}
		}
	}
	JOINT Hips_virtual
	{
		OFFSET 0.000000 0.000000 0.000000
		CHANNELS 3 Xrotation Yrotation Zrotation
		JOINT Hips
		{
			OFFSET -0.000000 -0.000000 -0.000000
			CHANNELS 3 Xrotation Yrotation Zrotation
			JOINT Spine
			{
				OFFSET 0.000000 10.199997 -0.299500
				CHANNELS 3 Xrotation Yrotation Zrotation
				JOINT Spine1
				{
					OFFSET 0.000000 11.900002 -1.516600
					CHANNELS 3 Xrotation Yrotation Zrotation
					JOINT Spine2
					{
						OFFSET 0.000000 13.600006 -2.842500
						CHANNELS 3 Xrotation Yrotation Zrotation
						JOINT Neck_virtual
						{
							OFFSET 0.000000 0.000000 0.000000
							CHANNELS 3 Xrotation Yrotation Zrotation
							JOINT Neck
							{
								OFFSET 0.000000 9.624100 -2.890100
								CHANNELS 3 Xrotation Yrotation Zrotation
								JOINT Head
								{
									OFFSET 0.000000 14.068802 -1.351900
									CHANNELS 3 Xrotation Yrotation Zrotation
									End Site
									{
										OFFSET 0 0 0
									}
								}
							}
						}
						JOINT LeftShoulder_virtual
						{
							OFFSET 0.000000 0.000000 0.000000
							CHANNELS 3 Xrotation Yrotation Zrotation
							JOINT LeftShoulder
							{
								OFFSET 15.263000 10.923401 -0.547700
								CHANNELS 3 Xrotation Yrotation Zrotation
								JOINT LeftArm
								{
									OFFSET 25.438599 -2.830597 -13.032500
									CHANNELS 3 Xrotation Yrotation Zrotation
									JOINT LeftForeArm
									{
										OFFSET 29.960503 0.000000 0.000000
										CHANNELS 3 Xrotation Yrotation Zrotation
										JOINT LeftHand
										{
											OFFSET 27.849251 0.000000 0.000000
											CHANNELS 3 Xrotation Yrotation Zrotation
											End Site
											{
												OFFSET 0 0 0
											}
										}
									}
								}
							}
						}
						JOINT RightShoulder_virtual
						{
							OFFSET 0.000000 0.000000 0.000000
							CHANNELS 3 Xrotation Yrotation Zrotation
							JOINT RightShoulder
							{
								OFFSET -15.263000 10.923401 -0.547700
								CHANNELS 3 Xrotation Yrotation Zrotation
								JOINT RightArm
								{
									OFFSET -25.438599 -2.830597 -13.032500
									CHANNELS 3 Xrotation Yrotation Zrotation
									JOINT RightForeArm
									{
										OFFSET -29.960503 0.000000 0.000000
										CHANNELS 3 Xrotation Yrotation Zrotation
										JOINT RightHand
										{
											OFFSET -27.849251 0.000000 0.000000
											CHANNELS 3 Xrotation Yrotation Zrotation
											End Site
											{
												OFFSET 0 0 0
											}
										}
									}
								}
							}
						}
					}
				}
			}
		}
	}
}
MOTION
Frames: 9
Frame Time: 0.03333333
-6.798190 94.575882 -38.512009 0.000000 0.000000 0.000000 172.485076 -67.630791 174.731976 -26.413238 17.390763 11.110155 31.026452 -7.109210 9.956929 3.575638 -3.403415 -7.838291 0.000000 0.000000 0.000000 172.918369 -68.143786 174.624387 -18.723254 -0.002569 4.299420 16.977607 8.415007 -0.189499 11.945956 0.533793 -3.891959 0.000000 0.000000 0.000000 171.171152 -68.435511 173.251792 -0.747619 0.166385 0.012433 6.243888 8.149853 0.233540 -4.308862 -1.388673 0.525641 0.000000 0.000000 0.000000 -6.251911 2.325775 -0.861285 2.059252 3.222974 0.338406 0.000000 0.000000 0.000000 -3.229923 1.921981 -1.156096 -5.729075 -1.633923 -0.702966 24.882815 -8.635791 -64.665478 -7.930151 -26.127779 -19.377528 0.000000 0.000000 0.000000 -10.914956 2.341441 -0.086350 7.206073 -2.387126 12.743183 33.763305 25.239827 49.848360 3.368905 48.771673 10.111315 0.000000 0.000000 0.000000 
-8.097908 95.176651 -40.692009 0.000000 0.000000 0.000000 173.100585 -61.962131 175.398780 -27.258264 12.137233 6.720735 29.285003 -9.422178 9.792820 6.098891 -3.374384 -6.735378 0.000000 0.000000 0.000000 173.994657 -62.639569 175.724552 -18.735081 1.474059 6.736172 15.833338 10.537303 0.242970 14.768496 -1.025671 -5.484983 0.000000 0.000000 0.000000 172.416624 -62.919047 174.534255 -0.755000 0.134654 -0.003321 7.034601 8.496478 0.643859 -4.334851 -1.143776 0.060559 0.000000 0.000000 0.000000 -5.849834 2.608806 -1.298349 1.915620 2.913138 0.467867 0.000000 0.000000 0.000000 -2.986412 2.165155 -1.633375 -5.711781 -1.232825 -0.949290 26.375868 -8.197098 -65.409013 -6.139229 -25.606338 -19.128010 0.000000 0.000000 0.000000 -10.732018 2.669809 -0.571770 6.511436 -1.379583 13.039868 34.079813 26.573689 50.288880 5.720022 49.062366 6.325193 0.000000 0.000000 0.000000 
-9.543644 95.527359 -42.837799 0.000000 0.000000 0.000000 173.684102 -56.204476 176.041186 -29.667343 7.630781 3.560908 27.760568 -11.635643 9.091921 8.746791 -3.938477 -7.445226 0.000000 0.000000 0.000000 174.842816 -56.986126 176.601084 -19.021464 2.412935 8.835413 15.935829 12.662480 0.738386 16.360436 -2.525760 -7.377070 0.000000 0.000000 0.000000 173.285232 -57.267110 175.449146 -0.760594 0.081878 -0.012321 7.711866 8.614150 1.106535 -4.269982 -0.975689 -0.341651 0.000000 0.000000 0.000000 -5.301583 2.806703 -1.661695 1.681830 2.532962 0.589998 0.000000 0.000000 0.000000 -2.646200 2.313853 -2.079124 -5.594841 -0.856726 -1.332283 27.296996 -7.746663 -66.382547 -4.123141 -24.324802 -18.544273 0.000000 0.000000 0.000000 -10.155074 2.917513 -1.060315 5.838786 -0.350494 13.317028 34.213377 28.117527 50.850185 7.987352 49.278640 2.699257 0.000000 0.000000 0.000000 
-11.077389 95.527504 -45.094330 0.000000 0.000000 0.000000 174.353529 -50.469525 176.816987 -32.962916 4.405587 1.663051 25.745182 -13.396441 7.792640 12.336255 -4.925827 -9.166642 0.000000 0.000000 0.000000 175.500331 -51.265300 177.358279 -19.633462 2.993050 10.434337 17.240692 15.059587 1.330461 17.792230 -3.509357 -9.081418 0.000000 0.000000 0.000000 173.961845 -51.605436 176.206777 -0.771953 0.032113 -0.002400 8.264183 8.517360 1.592869 -4.103563 -0.888242 -0.651141 0.000000 0.000000 0.000000 -4.646768 2.908625 -1.932882 1.383279 2.096475 0.697132 0.000000 0.000000 0.000000 -2.238970 2.377643 -2.437862 -5.357321 -0.412372 -1.831550 27.715784 -7.136273 -67.447790 -2.067358 -22.710830 -17.796688 0.000000 0.000000 0.000000 -9.218197 3.073019 -1.506623 5.220173 0.638141 13.574829 34.409066 29.644302 51.273243 10.089743 49.720796 -0.633416 0.000000 0.000000 0.000000 
-12.556591 95.249146 -47.510742 0.000000 0.000000 0.000000 175.092214 -44.814835 177.645434 -35.635870 2.139906 0.484689 21.782088 -14.502658 6.219452 17.490458 -5.934676 -10.820533 0.000000 0.000000 0.000000 175.996708 -45.538787 178.020234 -20.471177 3.343834 11.469808 19.017571 17.812630 1.934342 19.996753 -3.777670 -10.371822 0.000000 0.000000 0.000000 174.512071 -46.028310 176.911038 -0.774159 0.006998 0.006148 8.648885 8.237012 2.055764 -3.822815 -0.884753 -0.847027 0.000000 0.000000 0.000000 -3.917943 2.912189 -2.122610 1.053755 1.615459 0.786812 0.000000 0.000000 0.000000 -1.794146 2.374303 -2.677269 -4.981070 0.165892 -2.456429 27.831634 -6.290258 -68.442901 -0.141038 -21.296093 -17.027732 0.000000 0.000000 0.000000 -8.009521 3.130081 -1.890270 4.688391 1.570854 13.786219 34.934099 30.917036 51.202441 11.982327 50.684532 -3.552466 0.000000 0.000000 0.000000 
-13.822571 94.854378 -50.112892 0.000000 0.000000 0.000000 175.766230 -39.445135 178.365390 -36.601573 0.628847 -0.585023 15.519110 -14.751928 4.803938 24.198134 -6.293848 -11.542851 0.000000 0.000000 0.000000 176.340922 -39.970701 178.616823 -20.968898 3.503544 11.915609 20.425990 20.781761 2.610788 22.897600 -3.564277 -11.433027 0.000000 0.000000 0.000000 174.977494 -40.652890 177.551532 -0.786346 0.008762 0.003658 8.826484 7.791536 2.457869 -3.421106 -0.952606 -0.945463 0.000000 0.000000 0.000000 -3.128449 2.828231 -2.247596 0.730817 1.109911 0.857988 0.000000 0.000000 0.000000 -1.315032 2.313949 -2.796813 -4.471070 0.824811 -3.194958 27.880728 -5.204271 -69.193778 1.568541 -20.551602 -16.344846 0.000000 0.000000 0.000000 -6.638814 3.093812 -2.197460 4.268070 2.401381 13.921909 35.915915 31.774641 50.434841 13.736159 52.264047 -6.073320 0.000000 0.000000 0.000000 
-14.765238 94.419014 -52.820511 0.000000 0.000000 0.000000 176.279369 -34.420752 178.855033 -35.751662 -0.381165 -1.981908 8.086345 -14.287120 4.062989 30.071048 -5.562994 -11.180032 0.000000 0.000000 0.000000 176.545227 -34.808942 179.117913 -20.492705 3.382254 11.896450 21.116431 23.611839 3.307707 24.727284 -3.144061 -12.524193 0.000000 0.000000 0.000000 175.334918 -35.576898 178.073632 -0.795550 0.027056 -0.019697 8.756729 7.199000 2.774068 -2.902285 -1.081643 -0.957599 0.000000 0.000000 0.000000 -2.292509 2.686174 -2.307400 0.437499 0.597590 0.911567 0.000000 0.000000 0.000000 -0.819246 2.207264 -2.807251 -3.865865 1.424987 -4.015893 28.040932 -4.039357 -69.561092 3.028752 -20.639180 -15.778254 0.000000 0.000000 0.000000 -5.247997 2.990447 -2.436798 4.002283 3.118208 13.956360 37.109838 32.352014 49.228022 15.352850 54.221361 -8.226304 0.000000 0.000000 0.000000 
-15.302002 93.981880 -55.492638 0.000000 0.000000 0.000000 176.637025 -29.853712 179.168033 -34.097008 -1.193572 -3.569467 1.435240 -13.447413 4.027718 33.488366 -4.088190 -10.300778 0.000000 0.000000 0.000000 176.686557 -30.129436 179.556753 -18.770207 2.943510 11.593091 20.971331 26.090293 4.071237 24.681899 -2.522357 -13.598301 0.000000 0.000000 0.000000 175.617633 -30.843734 178.515532 -0.791464 0.041021 -0.042970 8.461888 6.480464 2.930658 -2.291460 -1.241383 -0.894435 0.000000 0.000000 0.000000 -1.461177 2.523923 -2.306612 0.173052 0.098149 0.941846 0.000000 0.000000 0.000000 -0.303930 2.075334 -2.737080 -3.228323 1.821531 -4.847758 28.350869 -3.006622 -69.463386 4.242934 -21.360699 -15.306893 0.000000 0.000000 0.000000 -3.944337 2.856277 -2.608674 3.897235 3.735965 13.918186 38.174436 32.872963 47.991016 16.805317 56.242083 -10.055021 0.000000 0.000000 0.000000 
-15.574287 93.603821 -58.259476 0.000000 0.000000 0.000000 176.833680 -25.798183 179.465611 -33.246694 -1.544130 -4.830519 -2.498715 -12.300427 4.304511 34.510859 -2.406443 -9.384993 0.000000 0.000000 0.000000 176.823762 -25.947827 179.930911 -16.281574 2.385253 11.274574 20.083352 28.234778 4.934785 23.349350 -1.453976 -14.431688 0.000000 0.000000 0.000000 175.820066 -26.567366 178.897571 -0.787286 0.033416 -0.053642 8.001963 5.667864 2.874788 -1.641235 -1.386340 -0.771715 0.000000 0.000000 0.000000 -0.720819 2.391433 -2.222785 -0.061035 -0.360989 0.934660 0.000000 0.000000 0.000000 0.198270 1.949267 -2.600118 -2.637177 1.923369 -5.645790 28.630283 -2.180587 -68.935453 5.216560 -22.337647 -14.906688 0.000000 0.000000 0.000000 -2.815221 2.743898 -2.685429 3.928797 4.280992 13.897845 38.966772 33.405513 47.069398 18.106423 58.195554 -11.642078 0.000000 0.000000 0.000000 
